<?xml version="1.0" encoding="utf-8"?>
<!-- Generator: Adobe Illustrator 28.1.0, SVG Export Plug-In . SVG Version: 6.00 Build 0)  -->
<svg version="1.1" id="레이어_1" xmlns="http://www.w3.org/2000/svg" xmlns:xlink="http://www.w3.org/1999/xlink" x="0px"
	 y="0px" viewBox="0 0 16 16" style="enable-background:new 0 0 16 16;" xml:space="preserve">
<style type="text/css">
	.st0{fill:#FFFFFF;stroke:#000000;stroke-width:0.5;stroke-miterlimit:10;}
	.st1{fill:#FFFFFF;stroke:#000000;stroke-linecap:round;stroke-miterlimit:10;}
	.st2{fill:#FFFFFF;}
	.st3{fill:none;stroke:#000000;stroke-miterlimit:10;}
	.st4{fill:#3333CC;}
</style>
<g>
	<circle class="st0" cx="8" cy="8" r="7.6"/>
	<line class="st1" x1="3.3" y1="12.8" x2="9.4" y2="6.7"/>
	<g>
		<polyline class="st2" points="10.3,2.3 7.2,5.4 10.8,9.1 13.9,5.9 		"/>
		<g>
			<polyline class="st3" points="9.3,3.3 7.2,5.4 10.8,9.1 12.8,7 			"/>
			<g>
				<path d="M10.3,2.3C9.7,2.6,8.7,2.9,8,2.9l1.1,0.5l0.5,1.1C9.7,3.9,10,2.9,10.3,2.3z"/>
			</g>
			<g>
				<path d="M13.9,5.9c-0.3,0.7-0.6,1.6-0.7,2.4l-0.5-1.1l-1.1-0.5C12.3,6.5,13.2,6.2,13.9,5.9z"/>
			</g>
		</g>
	</g>
	<g>
		<line class="st2" x1="12.4" y1="3.6" x2="8.9" y2="7.1"/>
		<g>
			<line class="st3" x1="11.4" y1="4.6" x2="8.9" y2="7.1"/>
			<g>
				<path d="M12.4,3.6c-0.7,0.3-1.6,0.6-2.4,0.7l1.1,0.5l0.5,1.1C11.8,5.2,12.1,4.3,12.4,3.6z"/>
			</g>
		</g>
	</g>
</g>
</svg>
